<svg width="38" height="21" viewBox="0 0 38 21" fill="none" xmlns="http://www.w3.org/2000/svg">
<path fill-rule="evenodd" clip-rule="evenodd" d="M22.0106 4.60006C20.422 6.95495 20.732 10.0478 22.7593 12.0697C24.7539 14.0632 27.9629 14.375 30.3343 12.8058C30.8328 12.4769 31.2772 12.0783 31.6526 11.6235C32.0216 11.1762 32.3218 10.6804 32.5436 10.1513C32.9989 9.06457 33.1167 7.8749 32.8828 6.72555C32.6526 5.58663 32.081 4.5369 31.2382 3.70451C30.4081 2.88184 29.3389 2.31759 28.1698 2.08514C27.0053 1.85707 25.796 1.97476 24.703 2.42252C23.5998 2.87576 22.6623 3.63385 22.0106 4.60006Z" stroke="black" stroke-width="3" stroke-linecap="round" stroke-linejoin="round"/>
<rect width="9.34351" height="2.98434" rx="1.49217" transform="matrix(0.615323 0.788275 -0.796644 0.604449 31.3774 11)" fill="black"/>
<rect width="16" height="2.95771" rx="1.47886" fill="black"/>
<rect y="8.87314" width="12" height="2.95771" rx="1.47886" fill="black"/>
<rect y="17.7462" width="12" height="2.95771" rx="1.47886" fill="black"/>
</svg>
